<?xml version="1.0" encoding="UTF-8"?>
<!DOCTYPE svg PUBLIC "-//W3C//DTD SVG 1.1//EN" "http://www.w3.org/Graphics/SVG/1.1/DTD/svg11.dtd">
<!-- Creator: CorelDRAW X7 -->
<svg xmlns="http://www.w3.org/2000/svg" xml:space="preserve" width="186.196mm" height="43.378mm" version="1.1" style="shape-rendering:geometricPrecision; text-rendering:geometricPrecision; image-rendering:optimizeQuality; fill-rule:evenodd; clip-rule:evenodd"
viewBox="0 0 18360 4277"
 xmlns:xlink="http://www.w3.org/1999/xlink">
 <defs>
  <style type="text/css">
   <![CDATA[
    .str0 {stroke:#086E56;stroke-width:19.7211}
    .fil1 {fill:#086E56}
    .fil2 {fill:#373435}
    .fil0 {fill:#AB3935}
   ]]>
  </style>
 </defs>
 <g id="Layer_x0020_1">
  <metadata id="CorelCorpID_0Corel-Layer"/>
  <path class="fil0" d="M17155 2906c0,-67 -13,-155 3,-152 38,6 108,-1 265,-3 537,-20 409,106 476,-411 13,-96 25,-184 34,-279 8,-86 22,-133 -146,-107l-442 33c-65,1 -94,9 -152,9l0 -117c115,0 962,-17 1011,-60 52,-44 139,-922 156,-1049 6,-157 -197,-76 -408,-75 -115,0 -348,27 -475,37l-488 34c-43,7 -120,11 -158,13l-806 58c-145,5 -113,93 -113,237 0,468 9,907 9,1376l12 1374c13,92 -7,245 8,334 15,96 180,75 261,63 102,-16 219,-7 326,-16l1471 -85c28,-1 58,1 86,1 45,-2 43,-8 85,-10 185,-9 152,-41 152,-361 0,-70 6,-115 9,-170l9 -683c-14,-126 -117,-90 -228,-78 -296,27 -678,87 -957,87z"/>
  <path class="fil0" d="M7329 3418c0,82 108,124 200,186l479 309c41,28 79,50 120,77 274,185 220,167 395,-362l171 -520c11,-33 10,-49 33,-66 7,30 453,706 509,791 122,183 169,52 252,-92l241 -422c28,-47 93,-176 127,-214 3,39 33,112 46,151l251 744c55,166 78,342 222,225l898 -734c75,-59 31,-127 -15,-247l-869 -2393c-21,-54 -30,-129 -90,-144 -77,-19 -148,100 -194,145l-175 176c-26,25 -32,34 -55,61l-173 176c-93,93 -270,299 -348,352 -7,-27 -24,-42 -52,-74l-820 -1035c-112,-141 -159,-4 -189,84l-128 374c-208,625 -437,1257 -645,1882l-191 570 0 0z"/>
  <path class="fil0" d="M1550 3040c61,0 142,-20 201,-32 71,-14 138,-24 203,-39 -60,89 -283,214 -421,214 -132,0 -209,-2 -307,-123 -105,-131 -97,-424 -37,-578 15,-36 24,-61 43,-92 87,-146 181,-267 349,-351 187,-93 433,-172 644,-32 73,49 79,96 124,164l-600 73c-241,30 -191,18 -221,235 -10,66 -56,473 -42,510 9,24 36,51 64,51l0 0zm-1550 -385c0,327 36,546 165,821 188,407 503,654 945,758 378,90 816,22 1167,-136l143 -71c314,-162 580,-537 747,-849 157,-293 294,-688 237,-1049 -20,-131 -166,-70 -365,-47 -97,10 -188,25 -287,36l-287 35 730 -777c33,-67 -18,-103 -59,-136l-114 -102c-423,-343 -1013,-530 -1560,-346 -353,118 -546,248 -815,485 -26,23 -42,30 -66,58 -113,130 -219,251 -309,401 -144,240 -272,592 -272,919l0 0z"/>
  <g id="_2146071220720">
   <circle class="fil1 str0" cx="5442" cy="781" r="477"/>
   <path class="fil1" d="M3800 1507c0,93 29,92 118,222 42,62 85,115 128,177l627 879c24,32 41,56 64,88 29,40 40,45 40,112 -1,121 -9,949 0,1058 9,125 113,99 319,130 95,13 174,22 269,36 94,14 174,21 268,35 49,7 86,11 134,18 117,17 218,46 221,-83 1,-60 -1,-121 -1,-181 0,-128 9,-228 9,-349 0,-120 0,-239 0,-359 0,-267 -18,-150 236,-490l947 -1232c45,-82 -44,-121 -143,-187 -38,-24 -69,-49 -106,-74 -177,-119 -550,-366 -697,-477 -117,-87 -152,13 -281,204l-351 505c-145,177 -239,215 -348,44 -114,-181 -235,-385 -346,-548 -77,-116 -121,-236 -202,-236 -51,0 -395,292 -464,342l-336 264c-38,30 -105,72 -105,102l0 0z"/>
   <g>
    <path class="fil2" d="M7590 986l-57 -40 170 -246c21,-32 13,-74 -18,-96l-115 -78c-31,-22 -73,-14 -96,18l-442 644c-22,32 -14,75 17,96l114 79c31,21 74,13 96,-19l169 -246 57 39c11,7 26,4 33,-5l78 -114c7,-11 4,-26 -6,-32l0 0z"/>
    <path class="fil2" d="M6939 90l-114 -78c-31,-21 -74,-14 -96,19l-169 246 -57 -40c-11,-6 -26,-4 -32,6l-79 114c-7,11 -5,25 6,32l57 39 -170 247c-21,32 -13,75 18,96l114 79c31,21 74,13 96,-19l443 -645c22,-31 14,-73 -17,-96l0 0z"/>
    <rect class="fil2" transform="matrix(0.0965031 0.0663877 -0.0503823 0.0732373 6844.63 473.006)" width="4141" height="2070"/>
   </g>
   <g>
    <path class="fil2" d="M3338 1042l55 -42 -183 -236c-23,-30 -18,-73 12,-97l110 -84c30,-23 73,-19 97,12l478 618c24,30 19,73 -11,97l-109 84c-30,24 -73,19 -97,-12l-184 -236 -54 42c-11,8 -24,6 -32,-4l-85 -109c-8,-10 -6,-25 3,-33l0 0z"/>
    <path class="fil2" d="M3938 112l109 -84c30,-24 73,-19 97,12l183 236 55 -43c9,-7 24,-5 32,4l84 110c8,10 6,25 -4,32l-55 42 184 237c24,30 18,73 -12,96l-109 85c-30,23 -73,18 -97,-12l-480 -618c-23,-30 -17,-73 13,-97l0 0z"/>
    <rect class="fil2" transform="matrix(-0.0925306 0.0718209 0.0545057 0.0702226 4053.33 488.204)" width="4141" height="2070"/>
   </g>
  </g>
  <path class="fil0" d="M11454 3430c0,82 109,124 201,185l479 310c42,28 78,49 120,77 274,184 219,167 396,-362l170 -520c11,-34 10,-49 32,-66 8,29 454,705 510,791 121,183 169,51 252,-93l240 -422c29,-47 94,-175 128,-213 4,39 33,111 46,151l250 744c56,165 78,342 223,224l898 -733c74,-59 31,-128 -15,-247l-870 -2393c-21,-55 -30,-129 -89,-144 -78,-19 -149,100 -195,145l-174 175c-26,26 -32,35 -55,62l-174 175c-92,94 -269,300 -347,352 -8,-26 -25,-41 -52,-73l-820 -1036c-112,-141 -160,-3 -189,85l-128 374c-208,625 -437,1256 -645,1882l-192 570 0 0z"/>
 </g>
</svg>
